<svg width="15" height="15" viewBox="0 0 15 15" fill="none" xmlns="http://www.w3.org/2000/svg">
<g id="apple" clip-path="url(#clip0_195_27260)">
<path id="Vector" d="M9.80455 2.77123C9.42172 3.25677 8.89112 3.60972 8.28994 3.77874C8.21149 3.80202 8.12849 3.80637 8.04796 3.79143C7.96744 3.7765 7.89177 3.74271 7.82738 3.69293C7.76299 3.64316 7.71178 3.57886 7.67808 3.50551C7.64439 3.43216 7.62921 3.3519 7.63384 3.27156C7.7049 2.68226 7.9472 2.1255 8.33182 1.66777C8.7157 1.21873 9.21437 0.878087 9.77663 0.680828C9.86162 0.648129 9.95392 0.638131 10.0441 0.651852C10.1343 0.665574 10.2192 0.702525 10.2902 0.758943C10.3611 0.815361 10.4155 0.88923 10.4479 0.973027C10.4803 1.05682 10.4895 1.14756 10.4746 1.23599C10.3795 1.79792 10.1392 2.32651 9.77663 2.77123H9.80455ZM12.2335 6.19813C12.3061 6.12896 12.3624 6.04514 12.3987 5.95247C12.435 5.8598 12.4504 5.76048 12.4438 5.66141C12.4371 5.56233 12.4087 5.46585 12.3603 5.37864C12.3119 5.29144 12.2449 5.21559 12.1637 5.15635C11.6789 4.7653 11.0855 4.52649 10.4606 4.47098C9.5114 4.40929 8.74362 5.01928 7.82927 5.01928C6.91492 5.01928 6.34956 4.47098 5.33749 4.47098C4.77957 4.50525 4.23897 4.67466 3.76398 4.96408C3.28898 5.2535 2.89437 5.65392 2.61538 6.12959C1.65217 7.55518 1.81968 10.2419 3.34825 12.5859C3.89966 13.4152 4.63253 14.3541 5.59574 14.3541C6.44728 14.3541 6.68459 13.8127 7.84323 13.8127C9.00188 13.8127 9.23919 14.361 10.0698 14.3541C11.033 14.3541 11.8008 13.3124 12.3522 12.4831C12.5659 12.1722 12.7571 11.847 12.9245 11.5098C12.991 11.3611 13.0015 11.194 12.9542 11.0383C12.9069 10.8827 12.8049 10.7486 12.6663 10.66C12.2988 10.4248 11.9901 10.1113 11.763 9.74276C11.536 9.37425 11.3965 8.96021 11.3549 8.53144C11.3133 8.10268 11.3707 7.67023 11.5228 7.26625C11.6749 6.86228 11.9179 6.49719 12.2335 6.19813Z" fill="black"/>
</g>
<defs>
<clipPath id="clip0_195_27260">
<rect width="14" height="14" fill="white" transform="translate(0.5 0.5)"/>
</clipPath>
</defs>
</svg>
