<svg width="13" height="13" viewBox="0 0 13 13" fill="none" xmlns="http://www.w3.org/2000/svg">
<g id="Group">
<path id="Vector" d="M12.9166 6.64436C12.9166 6.22193 12.8784 5.82089 12.8128 5.43054H6.63928V7.84214H10.174C10.0156 8.63353 9.55123 9.30193 8.86285 9.75645V11.3606H10.9717C12.2064 10.243 12.9166 8.5961 12.9166 6.64436Z" fill="#4285F4"/>
<path id="Vector_2" d="M6.63942 12.9168C8.40954 12.9168 9.8901 12.3393 10.9718 11.3607L8.86299 9.75655C8.27295 10.1416 7.52448 10.3768 6.63942 10.3768C4.9294 10.3768 3.48162 9.24857 2.96261 7.72461H0.788208V9.3769C1.86448 11.473 4.07713 12.9168 6.63942 12.9168Z" fill="#34A853"/>
<path id="Vector_3" d="M2.96254 7.72461C2.82596 7.33961 2.75494 6.92787 2.75494 6.50009C2.75494 6.07232 2.83142 5.66058 2.96254 5.27558V3.62329H0.788141C0.340149 4.48954 0.083374 5.46273 0.083374 6.50009C0.083374 7.53746 0.340149 8.51065 0.788141 9.3769L2.96254 7.72461Z" fill="#FBBC05"/>
<path id="Vector_4" d="M6.63942 2.6233C7.60643 2.6233 8.46963 2.94949 9.15255 3.58581L11.021 1.75706C9.89009 0.719694 8.40954 0.083374 6.63942 0.083374C4.07713 0.083374 1.86448 1.52713 0.788208 3.62324L2.96261 5.27553C3.48162 3.75157 4.9294 2.6233 6.63942 2.6233Z" fill="#EA4335"/>
</g>
</svg>
